<svg xmlns="http://www.w3.org/2000/svg" viewBox="0 0 733 731.9" width="733" height="731.9"><g fill="#61dafb"><path d="M402 1.7C267.6-12.7 129 55 57.4 169.7-22.2 291-18.3 459.7 67 577.2 136.5 677.6 259 739 381.4 732c60.2-5.3 121-19.5 173-51.7 125.5-72.2 197-224 174.8-366.8C709.6 164.3 588 36 440.5 7.5 427.8 5 414.7 2.7 402 1.7zM375.3 729c-97 4-196.3-38.3-253.2-118.5C43 500.8 30 352 70 225 101 124.2 181.8 36.7 286.6 13c114-28 245.2 7 319.4 101 83.7 104 99 250 65.5 376.3-28.3 107.4-111.8 202-221.8 228.4-24.2 6.3-49.2 9.7-74.2 10.3z"/><path d="M176.7 517.7c2 0 2.8 1 2.8 2.8v5.7c0 2-1 2.8-2.8 2.8h-63c-1.8 0-2.7-1-2.7-2.8V401.8c0-2 1-2.8 2.8-2.8h6.7c1.8 0 2.7 1 2.7 2.8v116h53.5zM270 436c2.2 0 2.4 1.6 1.8 3L223 563c-1 2.6-2.6 3-4 3h-6c-2.3 0-2.6-1.3-2-3.2l15-38-34-85.7c-.6-1-.4-3 1.6-3h7.3c1 0 2 1 3 3l28 71 28-71c1-2 1-3 3-3h7zm70.3 10.5c-.7 1.7-2 2-3.7 1.5-2.8-1-5.7-1.5-9.6-1.5h-2.3c-14 0-22.2 8.4-25 13.2v66.5c0 2-1 2.8-2.8 2.8h-7c-2 0-3-1-3-2.8V439c0-2 1-3 3-3h6c1 0 2 1 2 3v11c6-10 17-14.6 29-14.6 4 0 8 .6 12 2 2 .6 2 2 1 3.6zm20-44.7c0-2 1-2.8 3-2.8h5.6c1 0 2 1 2 2.8v6.5c0 1.8-1 2.8-3 2.8h-5c-2 0-3-1-3-2v-7zm-.3 37c0-1.7 1-2.7 2.8-2.7h6.3c2 0 3 1 3 3v87c0 2-1 3-3 3h-6c-1 0-2-1-2-3v-87zm95.5 26c-1.7 0-2.6-.8-3-2.7-2-10-9-15-19-15h-6.8c-13.6 0-21.2 8-21.2 22v29c0 14 7.6 21 21.2 21h6.7c12 0 15.6-4 21-11 1.3-1 2.4-1 4 0l4 3c1.8 1 1.8 3 .7 4-6 8-12 16-29 16h-7c-20 0-33-13-33-33v-28c0-22 14-34 34-34h7c16 0 28 10 31 26 0 2-1 3-2 3h-7zm98 62.5c.2.8.4 1.7-.5 1.7h-8.7c-2 0-3-2-3-4.5v-10.2C536 523.3 528 530 515 530h-7.7c-17 0-27.7-9.7-27.7-28 0-18.7 10.6-27 27.3-27h34v-6c0-17.4-5-22.3-21-22.3h-4c-10 0-17 1.7-23 5-2 .8-4 1-5-.7l-3-5.2c-.6-1.3-.6-2.2 1.2-3.3 7.5-5 17.7-7 28-7h4c23 0 32.2 10.7 32.2 33.7v58.3zm-37.8-8.5c14 0 22-7.4 25.6-17.8v-15.6h-34c-10 0-15.8 4-15.8 16.5 0 12 5.8 16 15.8 16h8.4zm59.4-117c0-2 1-2.8 3-2.8h7c2 0 3 1 3 2.8v124.4c0 2-1 2.8-2 2.8h-7c-2 0-3-1-3-2.8V401.8zm35 0c0-2 1-2.8 3-2.8h7c2 0 3 1 3 2.8v124.4c0 2-1 2.8-2 2.8h-7c-1.6 0-2.5-1-2.5-2.8V401.8zM427 225.5c-3.6-17.6-20.2-31.5-50-41.5l-12.3-4v123c-6-3.2-12.8-5-20-5-21.7 0-39.2 15.3-39.2 34 0 18.5 17.6 33.8 39 33.8s39-15.3 39-34V230.3c11.4 5 17.5 10 21 14.3 10 12.3 4.3 24.2 4.3 24.2 1-.7 23-20 18.3-43.3z"/></g></svg>